<mxfile host="app.diagrams.net" modified="2023-07-18T10:17:18.984Z" agent="Mozilla/5.0 (Macintosh; Intel Mac OS X 10_15_7) AppleWebKit/537.36 (KHTML, like Gecko) Chrome/114.0.0.0 Safari/537.36" etag="B1wARnWABmobgRQKcdXr" version="21.6.2" type="github">
  <diagram id="C5RBs43oDa-KdzZeNtuy" name="Page-1">
    <mxGraphModel dx="1434" dy="828" grid="1" gridSize="10" guides="1" tooltips="1" connect="1" arrows="1" fold="1" page="1" pageScale="1" pageWidth="827" pageHeight="1169" math="0" shadow="0">
      <root>
        <mxCell id="WIyWlLk6GJQsqaUBKTNV-0" />
        <mxCell id="WIyWlLk6GJQsqaUBKTNV-1" parent="WIyWlLk6GJQsqaUBKTNV-0" />
        <mxCell id="iwOR7gnDHlBaH8Aw310Z-0" value="此流程中使用货币信息为 100 GBP 131 USD 1023 HKD" style="text;html=1;strokeColor=none;fillColor=none;align=center;verticalAlign=middle;whiteSpace=wrap;rounded=0;" vertex="1" parent="WIyWlLk6GJQsqaUBKTNV-1">
          <mxGeometry x="190" y="70" width="280" height="30" as="geometry" />
        </mxCell>
        <mxCell id="iwOR7gnDHlBaH8Aw310Z-1" value="前端下单 商品信息 100 GBP 1023 HKD" style="rounded=0;whiteSpace=wrap;html=1;" vertex="1" parent="WIyWlLk6GJQsqaUBKTNV-1">
          <mxGeometry x="120" y="100" width="120" height="60" as="geometry" />
        </mxCell>
        <mxCell id="iwOR7gnDHlBaH8Aw310Z-2" value="" style="endArrow=classic;html=1;rounded=0;exitX=0.5;exitY=1;exitDx=0;exitDy=0;entryX=0.5;entryY=0;entryDx=0;entryDy=0;" edge="1" parent="WIyWlLk6GJQsqaUBKTNV-1" source="iwOR7gnDHlBaH8Aw310Z-1" target="iwOR7gnDHlBaH8Aw310Z-3">
          <mxGeometry width="50" height="50" relative="1" as="geometry">
            <mxPoint x="390" y="260" as="sourcePoint" />
            <mxPoint x="180" y="210" as="targetPoint" />
          </mxGeometry>
        </mxCell>
        <mxCell id="iwOR7gnDHlBaH8Aw310Z-7" style="edgeStyle=orthogonalEdgeStyle;rounded=0;orthogonalLoop=1;jettySize=auto;html=1;" edge="1" parent="WIyWlLk6GJQsqaUBKTNV-1" source="iwOR7gnDHlBaH8Aw310Z-3" target="iwOR7gnDHlBaH8Aw310Z-6">
          <mxGeometry relative="1" as="geometry" />
        </mxCell>
        <mxCell id="iwOR7gnDHlBaH8Aw310Z-3" value="后端计算保费的价格根据 GBP" style="rounded=0;whiteSpace=wrap;html=1;" vertex="1" parent="WIyWlLk6GJQsqaUBKTNV-1">
          <mxGeometry x="120" y="220" width="120" height="50" as="geometry" />
        </mxCell>
        <mxCell id="iwOR7gnDHlBaH8Aw310Z-9" value="" style="edgeStyle=orthogonalEdgeStyle;rounded=0;orthogonalLoop=1;jettySize=auto;html=1;" edge="1" parent="WIyWlLk6GJQsqaUBKTNV-1" source="iwOR7gnDHlBaH8Aw310Z-6" target="iwOR7gnDHlBaH8Aw310Z-8">
          <mxGeometry relative="1" as="geometry" />
        </mxCell>
        <mxCell id="iwOR7gnDHlBaH8Aw310Z-6" value="转换商品金额 100 GBP =&amp;gt; 131 USD" style="rounded=0;whiteSpace=wrap;html=1;" vertex="1" parent="WIyWlLk6GJQsqaUBKTNV-1">
          <mxGeometry x="120" y="320" width="120" height="50" as="geometry" />
        </mxCell>
        <mxCell id="iwOR7gnDHlBaH8Aw310Z-8" value="创建 policy" style="whiteSpace=wrap;html=1;rounded=0;" vertex="1" parent="WIyWlLk6GJQsqaUBKTNV-1">
          <mxGeometry x="120" y="435" width="120" height="60" as="geometry" />
        </mxCell>
      </root>
    </mxGraphModel>
  </diagram>
</mxfile>
